<svg xmlns="http://www.w3.org/2000/svg" viewBox="0 0 542.93 186.96"><defs><style>.cls-1{fill:#231f20;}</style></defs><g id="Layer_2" data-name="Layer 2"><g id="Layer_2-2" data-name="Layer 2"><path class="cls-1" d="M0,187V142.53q0-3.67,4.5-6.33a21.63,21.63,0,0,1,10.92-2.58H31V62.45H15.42A21.14,21.14,0,0,1,4.5,59.79Q0,57.21,0,53.53V44.61H124.17V98h15.56a21.61,21.61,0,0,1,10.91,2.58q4.52,2.58,4.51,6.26V187ZM108.62,98V53.53H62.09V98Zm31.11,44.5V115.78H124.17v-8.91H62.09v26.75H77.51v8.91Z"/><path class="cls-1" d="M176.52,187V142.53a9.64,9.64,0,0,1,2.2-6.33,6.77,6.77,0,0,1,5.33-2.58h15.2L153.73,80.2H146.2V53.53a9.69,9.69,0,0,1,2.2-6.34,6.78,6.78,0,0,1,5.33-2.58h30.32a7,7,0,0,1,5.4,2.58,9.63,9.63,0,0,1,2.2,6.34V80.2h-7.6L222,124.7v-23h22.79l-15.2,32a7,7,0,0,1,5.4,2.58,9.59,9.59,0,0,1,2.2,6.33V187Zm52-132.18a1.9,1.9,0,0,1,0-2.5,1.35,1.35,0,0,1,1.06-.55,1.37,1.37,0,0,1,1.07.55,1.9,1.9,0,0,1,0,2.5,1.37,1.37,0,0,1-1.07.55A1.35,1.35,0,0,1,228.5,54.78ZM252.29,187V142.53a9.43,9.43,0,0,1,2.26-6.33,6.77,6.77,0,0,1,5.33-2.58h15.2l-37.92-44.5V80.2h22.72l22.79,26.67L305.39,80.2H297.8V53.53a9.63,9.63,0,0,1,2.2-6.34,7,7,0,0,1,5.39-2.58h30.32A6.75,6.75,0,0,1,341,47.19a9.48,9.48,0,0,1,2.27,6.34V80.2h-7.6L290.2,133.62h15.19a6.78,6.78,0,0,1,5.34,2.58,9.43,9.43,0,0,1,2.26,6.33V187ZM242.62,56l-5.46-2.42,5.46-2.43,2.14-6.49,2.06,6.49,5.47,2.43L246.82,56l-2.06,6.5Zm1-19a1.89,1.89,0,0,1-.4-1.25,2.09,2.09,0,0,1,.4-1.25,1.52,1.52,0,0,1,1.14-.47,1.42,1.42,0,0,1,1.06.47,2,2,0,0,1,.4,1.25,1.84,1.84,0,0,1-.4,1.25,1.38,1.38,0,0,1-1.06.55A1.46,1.46,0,0,1,243.62,37Zm15.2,17.83a1.9,1.9,0,0,1,0-2.5,1.35,1.35,0,0,1,1.06-.55,1.37,1.37,0,0,1,1.07.55,1.9,1.9,0,0,1,0,2.5,1.37,1.37,0,0,1-1.07.55A1.35,1.35,0,0,1,258.82,54.78Z"/><path class="cls-1" d="M350.91,187V142.53a8.32,8.32,0,0,1,2.88-6.33,10.08,10.08,0,0,1,7-2.58h10V89.12l-10-8.92h-9.86V53.53a8.36,8.36,0,0,1,2.88-6.34,10.08,10.08,0,0,1,7-2.58h29.85v8.92h9.87V44.61H519.72a10.11,10.11,0,0,1,7,2.58,8.27,8.27,0,0,1,3,6.34v53.34a8.09,8.09,0,0,1-3,6.33,10.11,10.11,0,0,1-7,2.58H410.44v-8.91L400.49,98h-9.87v35.59h9.87a10.43,10.43,0,0,1,7.07,2.58,8.32,8.32,0,0,1,2.88,6.33V187Zm158.86-80.09V53.53H410.44v8.92h-9.95V89.12h9.95L420.39,98v8.84Z"/><path class="cls-1" d="M510,17.72a1.32,1.32,0,0,1-.47-1.06,1.48,1.48,0,0,1,.47-1.07,1.45,1.45,0,0,1,1.06-.4,1.63,1.63,0,0,1,1.07.4,1.58,1.58,0,0,1,.4,1.07,1.41,1.41,0,0,1-.4,1.06,1.44,1.44,0,0,1-1.07.47A1.29,1.29,0,0,1,510,17.72Z"/><polygon class="cls-1" points="524.13 18.79 518.67 16.66 524.13 14.59 526.2 9.06 528.33 14.59 533.8 16.66 528.33 18.79 526.2 24.25 524.13 18.79"/><path class="cls-1" d="M525.13,2.6a1.63,1.63,0,0,1-.4-1.07,1.45,1.45,0,0,1,.4-1.06A1.48,1.48,0,0,1,526.2,0a1.36,1.36,0,0,1,1.07.47,1.32,1.32,0,0,1,.46,1.06,1.47,1.47,0,0,1-.46,1.07,1.45,1.45,0,0,1-1.07.4A1.58,1.58,0,0,1,525.13,2.6Z"/><path class="cls-1" d="M525.13,32.92a1.63,1.63,0,0,1-.4-1.07,1.61,1.61,0,0,1,.4-1.06,1.44,1.44,0,0,1,1.07-.47,1.33,1.33,0,0,1,1.07.47,1.45,1.45,0,0,1,.46,1.06,1.47,1.47,0,0,1-.46,1.07,1.35,1.35,0,0,1-1.07.46A1.47,1.47,0,0,1,525.13,32.92Z"/><path class="cls-1" d="M540.33,17.72a1.32,1.32,0,0,1-.47-1.06,1.48,1.48,0,0,1,.47-1.07,1.61,1.61,0,0,1,1.06-.4,1.63,1.63,0,0,1,1.07.4,1.48,1.48,0,0,1,.47,1.07,1.32,1.32,0,0,1-.47,1.06,1.44,1.44,0,0,1-1.07.47A1.42,1.42,0,0,1,540.33,17.72Z"/></g></g></svg>