<svg xmlns="http://www.w3.org/2000/svg" viewBox="0 0 542.46 277.21"><defs><style>.cls-1,.cls-3{fill:none;}.cls-2{fill:#fff;}.cls-3{stroke:#231f20;stroke-miterlimit:10;}</style></defs><g id="Layer_2" data-name="Layer 2"><g id="Layer_3" data-name="Layer 3"><path class="cls-1" d="M271.76,33.7h0v0Z"/><path class="cls-1" d="M180,47.15c-1.43-.7-2.16-1-2.51-1.62C177.86,46.12,178.59,46.45,180,47.15Z"/><path class="cls-1" d="M56.76,203.48a2.27,2.27,0,0,0-.7,1.87A2.27,2.27,0,0,1,56.76,203.48Z"/><path class="cls-1" d="M395.63,59.82c-.34,0-.69,0-1,0h0C394.94,59.82,395.29,59.8,395.63,59.82Z"/><path class="cls-1" d="M407.9,78.8a1.16,1.16,0,0,0,.31-.26A1.16,1.16,0,0,1,407.9,78.8Z"/><path class="cls-1" d="M377.78,59.34c5.57.08,11.14.26,16.71.4h0C388.92,59.6,383.35,59.42,377.78,59.34Z"/><path class="cls-1" d="M394.49,59.73a12.26,12.26,0,0,1-.21-1.8,12.26,12.26,0,0,0,.21,1.8Z"/><path class="cls-1" d="M409.81,74.52a17.36,17.36,0,0,0-1.77.15h0A15.11,15.11,0,0,1,409.81,74.52Z"/><path class="cls-1" d="M408,74.6h0c1-3.16,1.1-3.62-1.16-4.63C409.08,71,409,71.44,408,74.6Z"/><path class="cls-1" d="M394.6,59.83v0Z"/><path class="cls-1" d="M403.62,71.19c.81,2.67,1.21,2.77,4.35,3.42h0C404.84,74,404.43,73.86,403.62,71.19Z"/><path class="cls-1" d="M399.18,64.52h0l4.05.49Z"/><path class="cls-1" d="M91.37,160.83c-.09.84-.08,1.7-.1,2.55h0C91.29,162.53,91.28,161.67,91.37,160.83Z"/><path class="cls-1" d="M306.4,40.73c0,1.07-.09,2-.14,2.9h0C306.31,42.72,306.35,41.8,306.4,40.73Z"/><path class="cls-1" d="M369.67,13.15a1.94,1.94,0,0,0-.93-1.6A1.94,1.94,0,0,1,369.67,13.15Z"/><path class="cls-1" d="M256.44,33.42c5.07.1,10.14.25,15.21.38h0C266.58,33.67,261.51,33.52,256.44,33.42Z"/><path class="cls-1" d="M374.13,16.46l-4.16-1h0Z"/><path class="cls-1" d="M365.81,13.91c.45,1.08,1.45,1.18,4.05,1.41h0C367.26,15.09,366.26,15,365.81,13.91Z"/><path class="cls-1" d="M157.15,66.07h0c-.13,1-.21,1.94-.41,2.89C156.93,68,157,67,157.15,66.07Z"/><path class="cls-1" d="M289.36,9a9.16,9.16,0,0,1-1.17.09A9.16,9.16,0,0,0,289.36,9Z"/><path class="cls-1" d="M291.49,4.71h0A12.07,12.07,0,0,1,291,8,12.38,12.38,0,0,0,291.49,4.71Z"/><path class="cls-1" d="M360.76,8.25c.77,1.92,2.49,2.24,4.44,2.34h0C363.25,10.49,361.53,10.17,360.76,8.25Z"/><path class="cls-1" d="M413.58,78.18c0,2.11,0,4.21,0,6.32h0C413.59,82.39,413.62,80.29,413.58,78.18Z"/><path class="cls-1" d="M413.67,84.58h0c.74,0,1.47-.12,2.21-.11C415.14,84.46,414.4,84.54,413.67,84.58Z"/><path class="cls-1" d="M383.81,146.66h0Z"/><path class="cls-1" d="M408,74.68h0c.57,2,.77,3.1.33,3.73C408.8,77.78,408.6,76.65,408,74.68Z"/><path class="cls-1" d="M336.73,107.65l1.24-.09Z"/><path class="cls-2" d="M291.61,4.6h0Z"/><path class="cls-2" d="M296.18,19.07l-.1-.1.1.11h0a.43.43,0,0,1,0-.11h0A.36.36,0,0,1,296.18,19.07Z"/><path class="cls-2" d="M306.15,43.73h0Z"/><polygon class="cls-2" points="306.16 43.63 306.25 43.73 306.25 43.73 306.16 43.63"/><polygon class="cls-2" points="291.5 4.6 291.49 4.61 291.6 4.71 291.5 4.6"/><polygon class="cls-2" points="91.26 163.48 91.17 163.38 91.26 163.48 91.26 163.48"/><path class="cls-2" d="M91.26,163.48Z"/><path class="cls-2" d="M157.26,66h0Z"/><polygon class="cls-2" points="157.16 65.97 157.16 65.97 157.26 66.07 157.16 65.97"/><polygon class="cls-2" points="369.97 15.33 369.97 15.33 369.97 15.33 369.97 15.33"/><polygon class="cls-2" points="369.97 15.33 369.87 15.42 369.87 15.43 369.97 15.33 369.97 15.33"/><polygon class="cls-2" points="369.97 15.45 369.97 15.45 369.97 15.45 369.97 15.45 369.97 15.45"/><path class="cls-2" d="M369.86,15.32a.34.34,0,0,1,0,.1h0v-.1Z"/><path class="cls-2" d="M370,15.45v-.12h0v.12Z"/><polygon class="cls-2" points="365.31 10.6 365.31 10.6 365.21 10.69 365.31 10.6"/><path class="cls-2" d="M365.33,10.72a.53.53,0,0,1,0-.12h0s0,.07,0,.12Z"/><polygon class="cls-2" points="369.86 15.32 369.86 15.32 369.86 15.32 369.86 15.32 369.86 15.32"/><path class="cls-2" d="M81.21,173.53l.09.1-.1-.1h.09l-.09,0v.1h0A.31.31,0,0,1,81.21,173.53Z"/><polygon class="cls-2" points="413.6 84.58 413.6 84.58 413.67 84.5 413.6 84.58"/><path class="cls-2" d="M50.55,212.63a.34.34,0,0,0,0-.1h0a.34.34,0,0,1,0,.1l-.09-.1Z"/><path class="cls-2" d="M177.3,42.48h0v-.13h0Z"/><path class="cls-2" d="M45.85,217.21l.09.09-.09-.09h0v.1h0Z"/><path class="cls-2" d="M50.55,212.63Z"/><path class="cls-2" d="M45.94,217.3h0v-.09h0Z"/><path class="cls-2" d="M177.21,42.38l.07.09s-.07-.09-.07-.1l.09,0h0l-.09,0v.11h0Z"/><polygon class="cls-2" points="399.08 64.51 399.08 64.51 399.18 64.42 399.08 64.51"/><path class="cls-2" d="M399.08,64.42v.09h0v-.09Z"/><polygon class="cls-2" points="271.76 33.8 271.76 33.8 271.66 33.7 271.76 33.8"/><path d="M415.88,84.47c-.74,0-1.47.07-2.21.11-.16,11.73-.36,23.46-.48,35.19-.14,13.55-.2,27.11-.32,40.66q-.22,23.38-.48,46.79c-.1,10.61-.12,21.22-.26,31.83-.06,4.29-.17,4.33-4.3,4.31q-37.18-.17-74.38-.37c-3.95,0-4.05-.14-4-4.13l.57-77.08c.05-7.16.16-14.32.06-21.47,0-3.74-.67-4.06-4.63-3.12-.11,1.45-.29,3-.31,4.5q-.15,12.26-.24,24.53-.22,36.25-.45,72.5c0,4.23-.11,4.33-4.29,4.32q-19-.07-38-.16l-92.84-.32c-12.67,0-25.33,0-38-.12-4.84,0-5-.25-5-4.94q.06-31.65.19-63.29c.05-11.51.21-23,.27-34.53.05-12,0-24,.08-36.06a17.28,17.28,0,0,1,.5-2.93,26.22,26.22,0,0,1,2.93-.3q21.48.26,43,.56,34.9.43,69.81.87,29,.33,57.93.63c1.34,0,2.69.3,4.48.51v13.8h4.92c0-5.59,0-10.94,0-16.28a2.49,2.49,0,0,0-2.55-2.76c-1-.07-2-.14-3.07-.15l-62.13-.7-67.9-.8c-13.69-.16-27.37-.18-41.05-.45-6.83-.13-6.8-.32-6.82-7.07a32.74,32.74,0,0,0-.41-5.33,2.27,2.27,0,0,0-2.86-1.89c-1.28.18-1.52,1.19-1.53,2.3s0,2.3,0,3.45c-.09,25.32-.13,50.64-.27,76-.15,26.34-.39,52.69-.57,79,0,1.51.17,3,.26,4.51a11.49,11.49,0,0,0,1.7.55c1.45.21,2.83.42,2.93,2.35s-.89,2.51-2.53,2.68c-2,.22-2.35,1.62-2.36,3.31,0,5.88-.13,11.77-.05,17.65.05,3.17.54,3.39,4.47,2.59.12-1.51.32-3.14.37-4.76.11-3.71.16-7.41.22-11.12a2.36,2.36,0,0,1,2.56-2.66h1.92q32.79.06,65.58.14,36,.1,72.07.28l96.27.4c7.93,0,15.86,0,23.79.06,3.23,0,3.6.31,3.64,3.44,0,3.32-.1,6.65-.1,10,0,1.87.11,3.73.17,5.75,1.19,0,2,0,2.71,0a12.68,12.68,0,0,0,1.84-.46,200.58,200.58,0,0,0,.06-23,17.7,17.7,0,0,0-2-.53c-1.44-.17-2.4-.72-2.39-2.38s.91-2.25,2.41-2.32c1.81-.08,2.37-1.28,2.42-2.84.09-2.69.18-5.37.2-8.05q.32-41.43.61-82.84.21-31.27.34-62.54c0-1.66,0-3.32,0-5S417.68,84.5,415.88,84.47Zm-12,168.6q-40.42-.16-80.86-.37-51-.21-102-.38l-42.93-.17c-7.66,0-15.33,0-23-.05a13.42,13.42,0,0,1-2.28-.2,1.72,1.72,0,0,1-1.51-2.24,3.56,3.56,0,0,1,1.63-2.17,7.7,7.7,0,0,1,3-.18q31.07.09,62.11.19,47,.19,93.92.47l70.13.39q10.93.06,21.85.12c.75,0,1.5.17,2.79.32.1,1.38.18,2.47.29,3.86A23.26,23.26,0,0,1,403.88,253.07Z"/><path d="M413.67,84.5l-.07.08h.07Z"/><path d="M413.6,84.58h0Z"/><polygon points="408.04 74.67 408.03 74.67 408.03 74.68 408.04 74.68 408.04 74.67"/><path d="M413.58,78.18c-.07-3.24-.46-3.61-3.77-3.66a15.11,15.11,0,0,0-1.77.16c.56,2,.76,3.1.32,3.73a.61.61,0,0,1-.15.13,1.16,1.16,0,0,1-.31.26,4.27,4.27,0,0,1-1.74.35c-.4,0-.84,0-1.34,0-6.52,0-13-.13-19.56-.21q-20.5-.28-41-.57l-71.32-.84-82.45-1q-17.44-.21-34.9-.43c-2,0-3.34-.4-3.83-2.76-.45-2.2-2.4-2.63-3.94-1a20.24,20.24,0,0,0-2,2.94c2.65,5.65,2.65,5.63,8.44,5.35,1.78-.09,3.57,0,5.35,0,4.34.14,8.68.41,13,.47q36.24.47,72.48.88,29.15.36,58.27.78c15.46.21,30.93.44,46.39.61,17.12.19,34.25.27,51.37.49,4.17,0,8.34.43,12.5.66C413.59,82.39,413.62,80.29,413.58,78.18Z"/><path d="M408.36,78.41a.61.61,0,0,1-.15.13A.61.61,0,0,0,408.36,78.41Z"/><path d="M408,74.67h0s0,0,0-.06h0S408,74.65,408,74.67Z"/><path d="M408,74.68Z"/><path d="M408,74.68H408s0,0,0,0Z"/><path d="M413.6,84.5h0v.08h0Z"/><path d="M406.16,79.15a4.27,4.27,0,0,0,1.74-.35A4.27,4.27,0,0,1,406.16,79.15Z"/><path d="M413.6,84.5v.08h0l.07-.08Z"/><polygon points="394.49 59.73 394.49 59.73 394.49 59.74 394.49 59.74 394.49 59.73"/><path d="M394.28,57.93c.06-2.12-1.1-3-3.06-3.09-.63,0-1.27-.12-1.91-.12l-60.14-.78q-22.6-.31-45.2-.69c-2.28,0-4.55-.23-6.83-.35-.53-1.54-1-2.83-1.53-4.41-2.49-.07-4.89-.17-7.3-.21-4.46-.07-8.93-.13-13.4-.14-1.3,0-2.46.21-3,1.77-1.12,3.06-1.2,3-4.52,3l-43.68-.63c-6-.08-12-.17-18-.21-2,0-3.47-.41-3.86-2.77A3.53,3.53,0,0,0,180,47.15c-1.43-.7-2.16-1-2.51-1.62s-.35-1.4-.3-3.05h-4.59c-.24,3.07-.46,5.83-.68,8.57a13.56,13.56,0,0,1-1.69.54c-1.45.23-2.87.45-2.85,2.39,0,2.19,1.71,2.31,3.24,2.42,1.9.12,3.82.05,5.74.08,15.58.17,31.17.37,46.76.5,2.65,0,5.31-.45,8-.36,4.32.16,8.63.78,12.95.86,17.11.34,34.23.53,51.34.8,1.14,0,2.59-.18,3.35.41,1.73,1.37,3.09,1.24,4.8.08a4.93,4.93,0,0,1,2.61-.27q14.17.11,28.35.27,21.64.25,43.29.57c5.57.08,11.14.26,16.71.39A12.26,12.26,0,0,1,394.28,57.93Z"/><path d="M177.21,42.38v.1h.07Z"/><path d="M394.6,59.74h-.11a.29.29,0,0,0,0,.09l.09-.09Z"/><path d="M394.6,59.74Z"/><path d="M177.51,45.53c-.35-.57-.34-1.4-.3-3.05h0C177.16,44.13,177.16,45,177.51,45.53Z"/><path d="M394.49,59.74h0s0,.06,0,.09h0A.29.29,0,0,1,394.49,59.74Z"/><polygon points="177.3 42.48 177.3 42.48 177.3 42.48 177.3 42.48"/><path d="M538.53,224.48l-1-3.77-3.84-1.13c-.29-1.29-.56-2.5-.86-3.79h-4.17v4l3.86,1.07.94,3.74c1.22.31,2.4.3,3.12.88a3.39,3.39,0,0,1,1,2.54c0,.59-1,1.28-1.68,1.63a4.23,4.23,0,0,1-1.89.07c-13.29-.12-26.58-.27-39.87-.36-20.81-.14-41.62-.28-62.43-.29-3.09,0-6.36-.73-9.5.94v8.6c1.65.13,3,.32,4.4.33,17.1.09,34.19.12,51.29.23,19.93.13,39.87.34,59.8.48,1.48,0,3-.27,4.74-.44V225.59Z"/><path d="M133.31,227.59c-.64,0-1.28-.05-1.92-.05q-28.92-.12-57.85-.22a11.18,11.18,0,0,1-6.19-1.6c-2.37-1.49-4.57-1.11-6.64.73a3.88,3.88,0,0,1-2.21,1.12c-5,0-10-.21-14.93-.3-1.77,0-2.94-.62-3.15-2.57a7.45,7.45,0,0,0-.56-1.69c-3.65-.55-4.17-.23-4.35,2.82-.09,1.4,0,2.81,0,4.22-.09,8,.32,6.93,6.86,7,26.31.19,52.61.25,78.92.36h15c0-2.77,0-4.91,0-7C136.21,228.4,135.14,227.59,133.31,227.59Z"/><path d="M442.53,171.84c-1.09,3.79-1.09,3.79-5.5,5.17V224.1c2,.15,3.78.38,5.54.4q14.19.18,28.36.28c8.31.06,16.62.14,24.93.09,3.43,0,3.7-.4,3.73-3.82q.2-20.13.31-40.27c0-2.6,0-4.13-3.45-4.31-.33,0-.65-.37-.92-.54l-1.14-3.77c-1.53-.15-2.92-.38-4.31-.4q-21.46-.24-42.94-.4A40,40,0,0,0,442.53,171.84Zm48.82,4.76c3.15,0,3.62.43,3.59,3.53q-.18,18.23-.49,36.44c-.05,2.91-.44,3.19-3.48,3.2H468v-.23c-7.55,0-15.09,0-22.64,0-3.49,0-3.71-.3-3.67-3.72q.18-17.64.35-35.29c0-3.93.23-4.17,4.09-4.15Q468.73,176.46,491.35,176.6Z"/><path d="M244.55,72.07c.89,0,1.78.1,2.68.11l39.06.65v.45q19.15,0,38.31,0a23.49,23.49,0,0,0,4.19-.29c1.39-.26,2.38-2,1.5-2.87-1.92-1.87-5.16-2.42-5.53-5.82,0-.18-.64-.38-1-.44a26.15,26.15,0,0,0-3.42-.4c-10.21-.14-20.43-.24-30.64-.38q-20.88-.27-41.75-.58c-6-.08-6.5-.17-6,6.89A2.54,2.54,0,0,0,244.55,72.07Z"/><path d="M340,107.4l-.09.09.1-.09h0Z"/><path d="M394,93.52c-5-.07-10-.23-14.94-.25-3,0-6,.15-8.95.23L369,98.16H355.52l-1.5,4.62c-3.64,0-7.2,0-10.76,0-2,0-3.19.66-3.19,2.83a14.07,14.07,0,0,1-.2,1.82H340v.09l16.77.17c1.49,0,2.89.13,2.95,2.14.06,1.65-.51,2.77-2.36,2.75-4.85-.06-9.71-.16-14.56-.24a2.41,2.41,0,0,1-2.64-2.62c0-.73-.1-1.46-.16-2.2h-.1s0-.06,0-.08l-1.9.15-1.24.09-1.22.1v9.17c1.68.14,3.18.37,4.68.39,6.26.08,12.52.07,18.78.15,4.55.06,4.58.08,6.42-4.55l13.19-.36c.54-1.74.9-2.93,1.41-4.57,1.82,0,3.59,0,5.35,0,3.45,0,6.9.06,10.35.13,2.06,0,3.1-.9,3.13-3s.13-4.34.12-6.52C398.93,94,398.47,93.58,394,93.52Zm-21.84,14.17c-3.44,0-6.88,0-10.31-.15-1.43,0-1.93-1-1.93-2.32s.58-2.22,2-2.26c1.78-.06,3.57,0,5.35,0V103c1.66,0,3.31,0,5,0s2.17,1.06,2.11,2.56A1.94,1.94,0,0,1,372.12,107.69Zm21.3-4.9a18.4,18.4,0,0,1-2.77.41c-4.48,0-8.95-.15-13.42-.23-1.58,0-2.76-.43-2.69-2.39s1.15-2.37,2.77-2.35c4.35.06,8.7.06,13,.16C393.6,98.46,393.77,98.73,393.42,102.79Z"/><path d="M339.87,107.41s0,0,0,.08l.09-.09Z"/><path d="M339.87,107.41l-1.9.15,1.9-.15Z"/><path d="M508.67,206.25c.27,1.11.57,2.33.88,3.64l3.78,1,1.29,3.84,3.72,1.23c.36,1.37.67,2.58,1.06,4.08l4.05-.22c.42-19.21.66-38,.62-56.82l-4.25-.94-1.13-3.79-4.45-1v.08h-.08c.19,1.35.38,2.7.61,4.31l4.32,1.39c0,15.53-.17,31.16-.35,47h-4c-.37-1.22-.72-2.4-1.14-3.82L509.8,205a25.64,25.64,0,0,1-.38-3.18q.09-19.93.27-39.86c0-4.29.11-4.32,4.47-4.66l0-.11.1,0v-4.5c-4.3,1.08-4.29-2.15-5.14-4.3-3.68-.33-3.8-.25-4.11,2.79-.07.64-.1,1.28-.11,1.92q-.27,23.58-.53,47.16C504.31,204.83,504.35,204.83,508.67,206.25Z"/><path d="M514.24,157.32l-.1-.1.1.1v-.08h0Z"/><path d="M514.24,157.24l-.1,0,.1.1Z"/><path d="M514.24,157.24v0Z"/><path d="M313.84,9.66c2,.29,2.49,1.55,2.21,3.3-.31,2-1.92,1.77-3.29,1.77-3.7,0-7.41-.08-11.11-.12a21.92,21.92,0,0,0-2.61.07c-2,.24-2.26,1.15-2.83,4.29,4,.08,8.08.14,12.12.25a33.82,33.82,0,0,1,5.34.35,3.41,3.41,0,0,1,2.24,1.61c.8,1.8-.21,3.22-2.33,3.29-2.93.1-5.86,0-8.8-.07-1.42,0-2.71,0-3.29,1.83-.92,3-1,3-4.2,2.93-5-.05-10-.15-14.94-.16-3.39,0-6.79.1-10.59.16V33.7q9.53,0,19.05.09h14.68c1.28-4.65,1.28-4.64,5.83-4.59q9.39.09,18.77.13a11.4,11.4,0,0,0,3.42-.28,2.93,2.93,0,0,0,1.65-1.73c.34-1.16-.46-1.94-1.62-2.14a27.73,27.73,0,0,0-3.41-.34c-2.17-.09-4.35-.12-6.52-.16A2.39,2.39,0,0,1,321,22.07c0-3.19,0-6.39,0-9.58a2.41,2.41,0,0,1,2.63-2.63c1.41,0,2.81,0,4.22-.09s2.59-.41,2.65-2.1-1.07-2.17-2.5-2.2c-4.47-.09-8.94-.17-13.42-.2-1.27,0-2.65.07-2.9,1.81S312.42,9.45,313.84,9.66Z"/><path d="M271.66,33.7l.1.1v-.1Z"/><path d="M299,14.68c-2,.24-2.26,1.15-2.84,4.29h0C296.78,15.83,297.09,14.92,299,14.68Z"/><path d="M271.76,33.8h0v-.1h0Z"/><path d="M296.2,19h-.12l.1.1A.36.36,0,0,0,296.2,19Z"/><path d="M432.67,142.77c1.74-.14,3-.33,4.24-.33q20.11.15,40.23.35c3.15,0,3.56.41,3.56,3.54,0,5.11-.11,10.22-.12,15.34,0,1.6.16,3.21.26,5h4.46c.13-1.43.32-2.67.34-3.91q.09-7.86.07-15.72c0-3.37-.07-3.36-3.42-4.34a3.37,3.37,0,0,1-.88-.55l-1.15-3.85c-1.64-.13-3.15-.34-4.66-.35-7-.08-14.05-.08-21.07-.16-6-.06-12-.22-18-.25-3.23,0-3.23.08-4.23,3.15-.12.35-.31.68-.49,1.09l-4.17,1.36v32.63h4.59C432.37,164.61,432.52,153.81,432.67,142.77Z"/><path d="M368,20.5c-.76.07-1.77.05-3.11,0-7.67-.14-15.34-.29-23-.39a14.84,14.84,0,0,0-4.17.35,2.44,2.44,0,0,0-1.34,1.92,2.5,2.5,0,0,0,1.43,1.85,13.18,13.18,0,0,0,3.78.41c5,.1,10,.13,15,.22s10.22.18,15.34.3c1.29,0,2.81.08,2.92,1.77.18,2.62.55,5.29-.51,7.93a24.39,24.39,0,0,1-2.76.3c-8.29-.11-16.59-.26-24.88-.37a12.29,12.29,0,0,0-3.8.19A3.32,3.32,0,0,0,341,37c-.31,1.14.53,1.92,1.71,2.09a23.83,23.83,0,0,0,3,.27c3.06.08,6.13.13,9.19.16,7,.09,14.07.2,21.1.21,2.93,0,3.53-.42,3.6-2.77.13-4.47.12-8.95,0-13.42,0-.87-.81-2.41-1.32-2.45-3-.21-3.24-2.84-4.21-4.67l-4.16-1C370.16,19.31,370.18,20.29,368,20.5Z"/><path d="M370,15.45h0c.19,3.86.21,4.84-2,5.05C370.18,20.29,370.16,19.31,370,15.45Z"/><path d="M369.87,15.42l.1,0v-.12h0Z"/><polygon points="369.97 15.33 369.97 15.33 369.97 15.33 369.97 15.33"/><path d="M369.87,15.42h0l.1,0h0Z"/><path d="M75.33,212.73a4.78,4.78,0,0,0-2.26.17c-.74.45-1.66,1.34-1.68,2.07a3,3,0,0,0,1.53,2.17,6.93,6.93,0,0,0,3,.39q27,.19,54.08.34a39.52,39.52,0,0,0,4.21-.18,1.91,1.91,0,0,0,1.87-2.39,3.41,3.41,0,0,0-1.74-2.13,9.28,9.28,0,0,0-3.4-.31H103.72v-.12Z"/><path d="M72.79,207.43a25.4,25.4,0,0,0,3.8.31q11.88.12,23.77.18c10.73.05,21.46.1,32.19.08,3.65,0,3.78-.28,3.37-4.53-1.57-.13-3-.34-4.35-.35q-27.78-.18-55.56-.3a7.5,7.5,0,0,0-3,.25,3.82,3.82,0,0,0-1.71,2.14A1.67,1.67,0,0,0,72.79,207.43Z"/><path d="M134.54,183.81a30.36,30.36,0,0,0-3.44-.17c-17-.16-34-.34-51-.44-2.28,0-4-.28-4.38-3-.18-1.37-1.37-1.75-2.63-1.65-1.46.11-1.87,1.13-1.91,2.4s-.06,2.81-.06,4.21A2.53,2.53,0,0,0,74,188c1.15,0,2.3.1,3.45.1h26.45v.49c7.66,0,15.31,0,23,0,2.55,0,5.1-.18,7.65-.32a1.8,1.8,0,0,0,1.87-2C136.44,184.89,135.93,184,134.54,183.81Z"/><path d="M305.38,121.62c-1.36,0-2.72.18-4.34.3-.12,2-.32,3.6-.29,5.22.07,3.77.41,4.16,4.19,4.26,6.5.17,13,.24,19.5.31,2.54,0,5.09,0,7.64-.1,2.85-.13,2.88-.23,3.08-3.17,0-.13,0-.26,0-.39.28-5.77,0-6.1-5.72-6.16C321.43,121.81,313.41,121.68,305.38,121.62Z"/><path d="M134.25,193.58c-1.27-.09-2.55-.15-3.82-.17q-24.12-.24-48.24-.46c-3.53,0-7.06.11-10.47.17-.78,4.12-.58,4.44,2.63,4.7,1,.08,2,.08,3.06.08,14.55.12,29.1.26,43.65.34,4.34,0,8.68-.11,13-.2a2,2,0,0,0,2.14-2.15C136.23,194.54,135.68,193.67,134.25,193.58Z"/><path d="M394.07,157l3.83-.81,1-3.84,4-1.15a44.58,44.58,0,0,0,.2-13.44l-4-1c-.33-1.36-.62-2.58-.93-3.87L394,131.59c.32-3.51-2.25-4.17-4.66-4.77-.32-1.42-.59-2.64-.92-4.12H374.72c-.36,1.53-.68,2.86-1,4.15l-4.56.88V132h4.42c.46-1.57.8-2.78,1.14-3.94,2.87-.83,9.38-.91,13.49-.15.33,1.09.7,2.28,1.15,3.72,2.72.38,4.91,1.59,4.55,5l4.21,1.14a102.57,102.57,0,0,1,0,13.24l-4.14,1.1c-.34,1-.73,2.21-1.22,3.66-2.91.43-4.95,1.89-4.43,5.36h4.7Z"/><path d="M379,69.1q4,0,8-.06c1.39,0,2-.89,2-2.27A2,2,0,0,0,387,64.55c-1.27-.07-2.54-.12-3.82-.15-7.78-.15-15.55-.34-23.33-.42-6.88-.08-13.77-.1-20.66,0-3.29,0-3.56.5-3.2,4.27,1.74.15,3.25.37,4.77.4Q359.92,68.9,379,69.1Z"/><path d="M373.25,156.85c-2.8-.19-4.6-1.61-4.34-4.84a8.64,8.64,0,0,0-1.92-.6c-2.24-.11-2.69-1.49-2.65-3.37.08-3.79.11-7.59.16-11.38a9.81,9.81,0,0,0-2.94.19c-.81.3-2,1.15-2,1.78-.07,4-.73,8.07.16,12.1l3.76.94c1.19,4,1.19,4,5.18,5.35.29,1.11.59,2.31.92,3.6l3.71.9,1.09,3.94c7,1.42,10,1.37,13.91-.21v-4c-3,0-6,0-9.07-.11C374.68,161,374.68,161,373.25,156.85Z"/><path d="M356.77,122.2c-4.45,0-8.9-.07-13.35,0a22.84,22.84,0,0,0-3.21.51v8.79c6.3.73,12.34.51,19.17.34,0-2.63,0-4.74.09-6.84S358.67,122.2,356.77,122.2Z"/><path d="M98.33,158.49a9.57,9.57,0,0,0,3.4.3c5,0,9.94,0,14.91,0v.09h5.73c3.95,0,7.9,0,11.85,0a1.81,1.81,0,0,0,2-1.82c.06-1.28-.36-2.29-1.76-2.52a13.18,13.18,0,0,0-2.66-.19c-2,.06-4.07.33-6.1.29-8.15-.19-16.29-.47-24.43-.68a6.42,6.42,0,0,0-3,.37,3,3,0,0,0-1.59,2.12A2.89,2.89,0,0,0,98.33,158.49Z"/><path d="M336,44.19a6.83,6.83,0,0,0,2.65-.17c.69-.3,1.57-1.18,1.56-1.79A3.74,3.74,0,0,0,339,39.81c-.48-.41-1.46-.32-2.22-.33q-13.23-.19-26.45-.32a33.23,33.23,0,0,0-3.84.4q0,.61-.06,1.17c0,1.07-.09,2-.14,2.9Z"/><path d="M306.26,43.73v-.1h0v.1Z"/><path d="M306.26,43.63h-.1l.1.1Z"/><path d="M181.8,43.07a5.79,5.79,0,0,1,.17.78c.43,2.64,2,2.91,4.07,2.93,7.41.09,14.82.21,22.23.27a25.61,25.61,0,0,0,3.21-.37c.17-3.51,0-3.84-2.7-4.15-1-.12-2-.1-3.06-.12-6.26-.08-12.53-.17-18.79-.23-2.48,0-5,.14-5.43-3.33-.07-.51-1.58-1.14-2.4-1.11-.58,0-1.37,1-1.59,1.7a7.08,7.08,0,0,0-.2,2.27c0,.21,0,.42,0,.63C180.26,41.5,181.32,41.49,181.8,43.07Z"/><polygon points="177.3 42.35 177.3 42.34 177.3 42.34 177.3 42.35 177.3 42.35"/><path d="M177.3,42.34h0c3-.85,4-.86,4.5.72C181.32,41.49,180.26,41.5,177.3,42.34Z"/><path d="M177.3,42.35l-.09,0s.06.07.07.1h0Z"/><path d="M177.31,41.71c0,.21,0,.42,0,.63h0C177.3,42.13,177.31,41.92,177.31,41.71Z"/><path d="M177.28,42.47h0Z"/><path d="M264.49,19.08c-1.3,0-2.25.51-2.37,1.93-.13,1.64.85,2.28,2.3,2.42.76.08,1.53.14,2.29.15q8,.12,16.06.2c3.44,0,6.88.08,10.32.1,2,0,3.12-.92,3.09-3,0-.59-.06-1.19-.09-1.79-6.2,0-12.41.12-18.61.12C273.15,19.21,268.82,19.11,264.49,19.08Z"/><path d="M296.08,19v.11h.09Z"/><path d="M277.48,19.2c6.2,0,12.41-.08,18.61-.12h0C289.89,19.12,283.68,19.2,277.48,19.2Z"/><path d="M261.51,8.75c8.42.19,16.85.28,25.28.36h1.4A9.16,9.16,0,0,0,289.36,9,1.77,1.77,0,0,0,291,8a12.07,12.07,0,0,0,.51-3.27q-14.3-.21-28.6-.38c-1.75,0-3.49.17-5.18.26C257.48,8.28,257.76,8.67,261.51,8.75Z"/><path d="M289.36,9A1.77,1.77,0,0,0,291,8,1.77,1.77,0,0,1,289.36,9Z"/><path d="M291.49,4.61h0a.41.41,0,0,1,0,.11h0Z"/><path d="M291.59,4.71l-.1-.1v.1Z"/><path d="M332.85,4.67a10.59,10.59,0,0,0,3.76.43c6.63.05,13.26.06,19.89.09,1.7,0,3.56,0,4,2.11a6.73,6.73,0,0,0,.28,1c.77,1.92,2.49,2.24,4.44,2.34-.25-1.55.5-3.91-1.46-4.21-3-.45-3.26-2.75-4.13-4.72a18.15,18.15,0,0,0-2.74-.52C349.48,1,342.09.83,334.69.69a3.08,3.08,0,0,0-1.5.13c-.69.41-1.78,1.08-1.74,1.58A3,3,0,0,0,332.85,4.67Z"/><path d="M365.21,10.69l.1-.09h-.11A.34.34,0,0,1,365.21,10.69Z"/><path d="M365.31,10.6h0Z"/><path d="M244.57,33.27c-1.35,0-2.29.43-2.38,1.86a2.21,2.21,0,0,0,2.13,2.64c.89.1,1.78.21,2.67.23q9.76.15,19.53.27c4.49,0,4.63-.08,5.13-4.47-5.07-.13-10.14-.28-15.21-.38C252.49,33.35,248.53,33.35,244.57,33.27Z"/><path d="M271.66,33.7a.38.38,0,0,0,0,.1h.11Z"/><path d="M271.65,33.8Z"/><path d="M236.7,42.75c.89,0,1.78,0,2.67-.09a2.06,2.06,0,0,0,2.19-2.14,1.93,1.93,0,0,0-2-2.25c-1.39-.13-2.78-.28-4.18-.3-5.47-.11-10.94-.17-16.42-.23-1.52,0-3.05,0-4.57,0-1.16,0-2,.52-2,1.81a2.18,2.18,0,0,0,1.81,2.52,18.28,18.28,0,0,0,3,.28c3.31,0,6.61,0,9.92,0v.37Z"/><path d="M202.85,28c-.21,3.77-.18,4.06,2.67,4.18,7.63.31,15.28.41,22.92.58a7.43,7.43,0,0,0,1.15-.09c1.34-.16,2.26-.94,1.94-2.26a3.83,3.83,0,0,0-1.82-2,4.86,4.86,0,0,0-2.25-.27c-6.75-.13-13.51-.27-20.26-.36C205.82,27.77,204.44,27.92,202.85,28Z"/><path d="M231.32,13c5.34.21,10.68.36,16,.5,2.16.05,4.33.08,6.49,0,1.32,0,2.64-.48,2.68-2.11S255.4,9.3,254,9.22c-.5,0-1-.09-1.52-.09h-10.3V8.67c-3.56,0-7.12,0-10.69,0-1.61,0-3.54-.27-3.86,2.08C227.42,12.17,228.64,12.94,231.32,13Z"/><path d="M278.38,44a2.48,2.48,0,0,0-1.29,2,2.62,2.62,0,0,0,1.34,1.93,7.8,7.8,0,0,0,3,.38c6.64.12,13.27.23,19.9.28,1.48,0,3-.23,4.55-.37.11-1.74.19-3.1.27-4.45-7.87,0-15.74-.09-23.62-.09A15.47,15.47,0,0,0,278.38,44Z"/><path d="M282.53,43.64c7.88,0,15.75,0,23.62.09h0C298.28,43.69,290.41,43.64,282.53,43.64Z"/><polygon points="306.26 43.73 306.25 43.73 306.25 43.73 306.26 43.73"/><path d="M306.15,43.73h.11l-.1-.1Z"/><path d="M246.58,28.24c4.08,0,8.17,0,12.25,0,1.38,0,2.58-.44,2.58-2.14s-1.11-2.18-2.54-2.2q-11.67-.2-23.34-.33c-1.51,0-2.87.46-3,2.29-.11,2.09,1.51,2.09,2.91,2.11,3.7.06,7.4,0,11.1,0Z"/><path d="M185.15,36.83c5.32.06,10.64,0,16.13,0,.82-2.55-.11-3.67-2.06-4a23,23,0,0,0-3.8-.34c-1.83,0-3.29-.41-3.54-2.58-.15-1.31-.9-2.3-2.25-2a3.13,3.13,0,0,0-2.08,1.72,3.28,3.28,0,0,1-3,2.89A2,2,0,0,0,182.66,35C182.83,36.46,184,36.82,185.15,36.83Z"/><path d="M204.93,17.46a26.58,26.58,0,0,0,2.68.15c2.29,0,4.59,0,6.28,0,1.37.12,2.13.26,2.89.25,2.68,0,5.37,0,8-.28.65-.08,1.49-1.29,1.63-2.08.09-.5-.87-1.42-1.55-1.75a6.44,6.44,0,0,0-2.62-.4q-7.26-.15-14.53-.23a19.85,19.85,0,0,0-2.67.18c-1.22.15-2.28.58-2.33,2S203.69,17.31,204.93,17.46Z"/><path d="M309.11,4.41a2.5,2.5,0,0,0,1.63-1.63A2.56,2.56,0,0,0,309.62.67a8.3,8.3,0,0,0-3.35-.58C303.07,0,299.88,0,296.68,0c-4.33,0-4.63.26-5.07,4.6l13.68,0A18,18,0,0,0,309.11,4.41Z"/><path d="M305.29,4.55l-13.68,0h0Z"/><polygon points="291.49 4.6 291.5 4.6 291.5 4.6 291.49 4.6"/><path d="M291.61,4.6h-.12l.1.11S291.6,4.64,291.61,4.6Z"/><polygon points="407.98 74.6 407.97 74.6 407.97 74.61 407.97 74.61 407.98 74.6"/><path d="M408,74.6c1-3.16,1.11-3.62-1.15-4.63l-1.13-.49A3.94,3.94,0,0,1,404,67.74a11.7,11.7,0,0,1-.75-2.73l-4.05-.49c.06,1.44.12,2.87.17,4.24l3.88,1.1c.15.5.27.94.39,1.33C404.43,73.86,404.84,74,408,74.6Z"/><path d="M408,74.62h0l0,.07.07-.06Z"/><path d="M408,74.62Z"/><path d="M399.08,64.51Z"/><path d="M399.18,64.42l-.1.09h.1Z"/><path d="M408,74.61h0l0,.07h0Z"/><polygon points="407.95 74.68 407.95 74.68 407.94 74.69 407.94 74.69 407.95 74.68"/><path d="M408,74.62l-.07.06h0l.07-.06Z"/><polygon points="408.02 74.62 408.02 74.61 408.02 74.62 408.02 74.62"/><path d="M43,222a2.09,2.09,0,0,0,2.52-2.12c.08-.84.2-1.68.31-2.52-.85,0-1.69.09-2.53.11-1.64,0-2.64.71-2.55,2.51C40.84,221.35,41.74,221.85,43,222Z"/><path d="M45.84,217.31c-.85,0-1.69.09-2.53.11.84,0,1.68-.07,2.53-.11Z"/><path d="M45.85,217.21v.1h.1Z"/><polygon points="45.84 217.31 45.84 217.31 45.84 217.31 45.84 217.31 45.84 217.31"/><path d="M45.53,219.83c.08-.84.2-1.68.31-2.52h0C45.73,218.15,45.61,219,45.53,219.83Z"/><path d="M53.51,212.38a2,2,0,0,0,2-2.32,2.13,2.13,0,0,0-2.17-2.21c-1.34-.13-2.28.34-2.51,1.73-.16,1-.19,2-.28,2.95C51.55,212.48,52.54,212.48,53.51,212.38Z"/><path d="M50.84,209.58c-.16,1-.19,2-.28,2.95h0C50.65,211.54,50.68,210.55,50.84,209.58Z"/><path d="M50.56,212.53h-.1l.09.1A.34.34,0,0,0,50.56,212.53Z"/><path d="M154.21,70.64c1.29.09,2.25-.32,2.53-1.68.2-.95.28-1.92.41-2.89-1,.09-2,.13-2.9.28a2.07,2.07,0,0,0-1.95,2.35A1.88,1.88,0,0,0,154.21,70.64Z"/><path d="M157.16,66h0a.34.34,0,0,0,0,.1h0A.34.34,0,0,1,157.16,66Z"/><path d="M157.26,66.07l-.1-.1a.34.34,0,0,0,0,.1Z"/><path d="M164.59,61.13c1.33,0,2.16-.54,2.26-1.93s-.74-2.36-2.32-2.38c-1.36,0-2.18.6-2.24,2C162.21,60.33,163.07,61.09,164.59,61.13Z"/><path d="M93.82,163.4c1.57,0,2.47-1,2.16-2.4a3.13,3.13,0,0,0-1.87-1.91,1.94,1.94,0,0,0-2.74,1.74c-.09.84-.08,1.7-.1,2.55C92.12,163.39,93,163.41,93.82,163.4Z"/><path d="M91.26,163.48a.38.38,0,0,0,0-.1h0s0,.06,0,.1Z"/><path d="M91.27,163.38h-.1l.09.1S91.26,163.41,91.27,163.38Z"/><path d="M78.21,177.89c1.28.39,2.59,0,2.81-1.69.1-.85.13-1.71.18-2.57-.86,0-1.71-.08-2.57-.09-1.61,0-2.48.92-2.21,2.38A3.05,3.05,0,0,0,78.21,177.89Z"/><path d="M81.2,173.63h.1l-.09-.1A.31.31,0,0,0,81.2,173.63Z"/><path d="M81.2,173.63h0c0,.86-.08,1.72-.18,2.57C81.12,175.35,81.15,174.48,81.2,173.63Z"/><path d="M88.53,168.24A2,2,0,0,0,91,166.42c.12-1,.14-1.95.2-2.93-1,.08-2,.13-2.94.28-1.46.22-1.73,1.3-1.66,2.55A1.91,1.91,0,0,0,88.53,168.24Z"/><path d="M91.26,163.48l-.09-.1a.37.37,0,0,0,0,.11Z"/><path d="M91.16,163.49c-1,.08-2,.13-2.94.28,1-.15,2-.2,2.94-.28Z"/><polygon points="91.26 163.48 91.26 163.48 91.26 163.48 91.26 163.48"/><path d="M85.87,171.9c0-2.46-.45-3.07-2.23-3.15s-2.33.56-2.43,3a15.22,15.22,0,0,0,.08,1.79l4.18-.62A3.76,3.76,0,0,0,85.87,171.9Z"/><path d="M85.47,172.89l-4.18.62h0Z"/><path d="M81.3,173.63a.37.37,0,0,0,0-.11H81.2Z"/><circle cx="394.6" cy="59.83"/><path d="M395.63,59.82c-.34,0-.69,0-1,0V64.2l4.48.22c0-.35,0-.69,0-1C398.84,60.06,398.84,60.06,395.63,59.82Z"/><path d="M399.08,64.42v.09h0l.1-.09Z"/><path d="M399.05,63.38c0,.35,0,.69,0,1h0C399.07,64.07,399.07,63.73,399.05,63.38Z"/><path d="M394.51,59.83Z"/><path d="M394.6,59.83h0v-.09h0Z"/><path d="M394.51,59.83h.09v-.09A.76.76,0,0,0,394.51,59.83Z"/><polygon points="394.6 59.74 394.6 59.74 394.6 59.74 394.6 59.74 394.6 59.74"/><polygon points="394.5 59.83 394.5 59.83 394.5 59.83 394.5 59.83"/><path d="M394.6,59.74l-.09.09h0a.76.76,0,0,1,.09-.09Z"/><path d="M369.86,15.32c-.06-.92-.1-1.63-.19-2.17a1.94,1.94,0,0,0-.93-1.6,10.59,10.59,0,0,0-2.79-.7,6.19,6.19,0,0,1-.62-.13,11.77,11.77,0,0,0,.48,3.19C366.26,15,367.26,15.09,369.86,15.32Z"/><path d="M369.86,15.32v.1h0l.1-.09Z"/><path d="M370,15.33Z"/><polygon points="365.31 10.6 365.31 10.6 365.31 10.6 365.31 10.6"/><path d="M365.33,10.72c0-.05,0-.08,0-.12h0l-.1.09Z"/><path d="M365.81,13.91a11.77,11.77,0,0,1-.48-3.19h0A11.77,11.77,0,0,0,365.81,13.91Z"/><polygon points="369.87 15.43 369.87 15.42 369.87 15.42 369.87 15.43"/><path d="M369.86,15.32c-.06-.92-.1-1.63-.19-2.17.09.54.13,1.25.19,2.17Z"/><path d="M62.69,202.43c2.36.08,3-.78,3-2.33s-.88-2-2.23-2c-1.6,0-2.52.86-2.2,2.36C61.44,201.35,62.39,202,62.69,202.43Z"/><path d="M58,207.25a2.07,2.07,0,0,0,2.47-2.2,2.86,2.86,0,0,0-.13-.93,1.93,1.93,0,0,0-2-1.2,2.31,2.31,0,0,0-1.57.56,2.27,2.27,0,0,0-.7,1.87A1.79,1.79,0,0,0,58,207.25Z"/><path d="M60.32,204.12a1.93,1.93,0,0,0-2-1.2,2.32,2.32,0,0,0-1.58.56,2.31,2.31,0,0,1,1.57-.56A1.93,1.93,0,0,1,60.32,204.12Z"/><path d="M194.77,27.1c1.32.07,2.17-.44,2.14-1.93s-1-2.17-2.41-2.2c-1.18,0-1.94.42-1.94,1.72A2.06,2.06,0,0,0,194.77,27.1Z"/><path d="M45.94,217.21h.66a6.17,6.17,0,0,0,.75,0c2.85-.32,2.9-.37,3.12-3.13a12.89,12.89,0,0,0,0-1.39C46,212.92,46,213,45.94,217.21Z"/><path d="M50.46,212.64h0c-4.43.28-4.48.33-4.52,4.57h0C46,213,46,212.92,50.46,212.64Z"/><path d="M45.94,217.21h0Z"/><polygon points="45.94 217.21 45.94 217.21 45.94 217.21 45.94 217.21 45.94 217.21"/><path d="M45.85,217.21l.09.09v-.09Z"/><path d="M50.55,212.63l-.09-.1v.11Z"/><path d="M369.25,133.45a8.2,8.2,0,0,0-.14-1.4c-.34,0-.69,0-1,0-3.57.18-3.6.21-3.59,3.88a5,5,0,0,0,.08.66,9.57,9.57,0,0,0,1.41.11C368.83,136.56,369.13,136.25,369.25,133.45Z"/><path d="M369.11,132.05c-.34,0-.69,0-1,0,.34,0,.69,0,1,0Z"/><path d="M159.47,65.92a2.38,2.38,0,0,0,.67-.2,3.17,3.17,0,0,0,1.46-2.2c.06-.57-.79-1.56-1.44-1.78a1.91,1.91,0,0,0-2.7,1.31,14.89,14.89,0,0,0-.2,2.92A20.15,20.15,0,0,0,159.47,65.92Z"/><path d="M157.26,66h-.1l.1.1Z"/><polygon points="157.16 65.97 157.16 65.97 157.16 65.97 157.16 65.97"/><path d="M159.47,65.92a20.15,20.15,0,0,1-2.21,0h0A20.15,20.15,0,0,0,159.47,65.92Z"/><path d="M201.62,20.16a1.86,1.86,0,0,0-2.31-1.9c-.77.12-1.42,1-2.82,2,1.61.92,2.43,1.69,3.35,1.83C201,22.26,201.67,21.39,201.62,20.16Z"/><path d="M267.79,158.32c.16.08.55-.32,1.15-.7a5.13,5.13,0,0,0-1.36-.76c-.25,0-.56.35-.84.55A4.74,4.74,0,0,0,267.79,158.32Z"/><path class="cls-2" d="M340,107.49v-.09l-.1.09Z"/><path class="cls-2" d="M514.16,157.33h.08l-.1-.1Z"/><path class="cls-2" d="M369.18,132.05Z"/><path class="cls-2" d="M369.18,132h-.08l.08.08Z"/><path class="cls-2" d="M388.38,161.23a.38.38,0,0,0,0-.1h-.09Z"/><path class="cls-2" d="M364.5,136.58v.08h.08Z"/><path class="cls-2" d="M388.28,161.23h.1l-.1-.1Z"/><path class="cls-2" d="M364.57,136.59h-.07l.08.08A.15.15,0,0,0,364.57,136.59Z"/><path class="cls-2" d="M369.1,132s0,.05,0,.08h.07Z"/><path d="M388.49,142.41l-4.17-1.09c-.29-1.45-.53-2.67-.79-4H379c1.17,4.34-1.74,4.63-4.91,4.93.11,1.47.2,2.75.29,3.88l4.16,1c.29,1.49.54,2.82.85,4.42l4.46-.47v-4.43h-.1v-.09a15.69,15.69,0,0,1-1.81.05c-2.28-.19-2.91-.84-2.79-2.69.15-2.07,1.55-2,3-1.82a7.12,7.12,0,0,1,1.35.55c.07,1.24.14,2.57.21,3.91h.1v.1h4.95C388.64,144.86,388.57,143.63,388.49,142.41Z"/><polygon points="383.71 146.66 383.71 146.66 383.81 146.56 383.71 146.66"/><path d="M383.71,146.66Z"/><path d="M383.81,146.56l-.1.1h.1Z"/><path class="cls-2" d="M383.81,146.56h-.1v.09Z"/><polygon class="cls-3" points="49.58 156.13 30.49 143.5 7.6 143.44 15.63 131.33 1.51 116.77 25.56 121.92 39.72 112.98 46.55 128.27 69.43 137.31 49.59 141.6 49.58 156.13"/></g></g></svg>