<svg xmlns="http://www.w3.org/2000/svg" viewBox="0 0 241.42 241.32"><defs><style>.cls-1{fill:#f6eb0f;stroke:#231f20;stroke-miterlimit:10;}</style></defs><g id="Layer_2" data-name="Layer 2"><g id="Layer_1-2" data-name="Layer 1"><polygon class="cls-1" points="211.76 196.53 158.31 166.65 178.38 224.5 139.33 177.33 137.15 238.53 117.77 180.43 93.63 236.72 96.55 175.54 53.7 219.31 78.53 163.32 22.77 188.65 66.14 145.41 5 148.88 61.06 124.23 2.79 105.38 63.97 102.65 16.44 64.02 74.48 83.58 44.12 30.39 91.17 69.59 82.07 9.02 111.79 62.57 125.18 2.81 133.55 63.48 167.62 12.59 153.51 72.19 203.67 37.04 168.98 87.52 228.44 72.86 177.87 107.4 238.61 115.22 178.97 129.15 232.79 158.38 172.14 149.83 211.76 196.53"/></g></g></svg>